<svg xmlns="http://www.w3.org/2000/svg" width="960" height="320" viewBox="0 0 960 320">
  <defs>
    <filter id="noise" x="-10%" y="-10%" width="120%" height="120%">
      <feTurbulence type="fractalNoise" baseFrequency="0.012 0.095" numOctaves="5" seed="12" stitchTiles="stitch"/>
      <feColorMatrix type="matrix" values="0.52 0 0 0 0.34  0 0.36 0 0 0.22  0 0 0.18 0 0.08  0 0 0 .42 0"/>
    </filter>
    <linearGradient id="warm" x1="0" x2="1">
      <stop offset="0" stop-color="#d9b071"/>
      <stop offset=".28" stop-color="#c18b4f"/>
      <stop offset=".52" stop-color="#e2bd80"/>
      <stop offset=".79" stop-color="#b9793f"/>
      <stop offset="1" stop-color="#d9ad6b"/>
    </linearGradient>
  </defs>
  <rect width="960" height="320" fill="url(#warm)"/>
  <rect width="960" height="320" filter="url(#noise)" opacity=".78"/>
  <g fill="none" stroke-linecap="round">
    <path d="M-30 44C115 18 180 82 322 50c122-28 215-8 332 18 130 28 218-8 338-30" stroke="#6f3f1e" stroke-width="2.2" opacity=".2"/>
    <path d="M-18 92C92 70 170 112 286 93c112-18 204-54 350-22 122 27 216 18 345-12" stroke="#fff2c7" stroke-width="1.8" opacity=".18"/>
    <path d="M-22 152C118 127 209 169 333 148c116-20 205-48 330-22 114 24 190 35 322 0" stroke="#74411d" stroke-width="3" opacity=".18"/>
    <path d="M-40 224C108 196 189 243 322 218c132-25 225-50 352-17 111 29 197 35 326 1" stroke="#5d3217" stroke-width="2.4" opacity=".16"/>
    <path d="M42 286C196 258 305 304 430 275c116-27 225-52 358-15 74 21 126 16 214 0" stroke="#fff4cf" stroke-width="2" opacity=".16"/>
  </g>
  <g opacity=".25">
    <ellipse cx="198" cy="168" rx="78" ry="18" fill="none" stroke="#6d3c1d" stroke-width="3"/>
    <ellipse cx="682" cy="90" rx="92" ry="20" fill="none" stroke="#f7dda2" stroke-width="2"/>
    <ellipse cx="770" cy="238" rx="118" ry="22" fill="none" stroke="#6b3b1a" stroke-width="2.5"/>
  </g>
</svg>
