<svg xmlns="http://www.w3.org/2000/svg" width="960" height="320" viewBox="0 0 960 320">
  <defs>
    <filter id="noise" x="-10%" y="-10%" width="120%" height="120%">
      <feTurbulence type="fractalNoise" baseFrequency="0.01 0.075" numOctaves="4" seed="24" stitchTiles="stitch"/>
      <feColorMatrix type="matrix" values="0.44 0 0 0 0.42  0 0.34 0 0 0.30  0 0 0.14 0 0.08  0 0 0 .38 0"/>
    </filter>
    <linearGradient id="soft" x1="0" x2="1">
      <stop offset="0" stop-color="#efd095"/>
      <stop offset=".25" stop-color="#dfb46d"/>
      <stop offset=".5" stop-color="#f3d9a4"/>
      <stop offset=".74" stop-color="#d9a75c"/>
      <stop offset="1" stop-color="#edc987"/>
    </linearGradient>
  </defs>
  <rect width="960" height="320" fill="url(#soft)"/>
  <rect width="960" height="320" filter="url(#noise)" opacity=".62"/>
  <g fill="none" stroke-linecap="round">
    <path d="M-40 60C100 32 196 82 318 62c110-18 184-34 300-8 139 31 226 13 365-28" stroke="#8f5a25" stroke-width="1.8" opacity=".16"/>
    <path d="M-35 119C96 102 198 135 319 116c126-19 194-30 310-6 126 26 228 22 358-4" stroke="#fff0c4" stroke-width="2" opacity=".18"/>
    <path d="M-20 180C100 153 228 201 350 177c110-22 198-38 314-12 121 27 205 22 330-8" stroke="#9c642e" stroke-width="2.2" opacity=".15"/>
    <path d="M-42 252C97 231 211 268 344 246c119-20 213-37 336-8 116 27 199 18 322-11" stroke="#7a481f" stroke-width="1.8" opacity=".12"/>
  </g>
  <g opacity=".2">
    <ellipse cx="248" cy="126" rx="70" ry="14" fill="none" stroke="#8d5724" stroke-width="2"/>
    <ellipse cx="592" cy="214" rx="104" ry="18" fill="none" stroke="#fff0bf" stroke-width="2"/>
  </g>
</svg>
