<svg xmlns="http://www.w3.org/2000/svg" width="960" height="320" viewBox="0 0 960 320">
  <defs>
    <filter id="noise" x="-10%" y="-10%" width="120%" height="120%">
      <feTurbulence type="fractalNoise" baseFrequency="0.016 0.13" numOctaves="6" seed="41" stitchTiles="stitch"/>
      <feColorMatrix type="matrix" values="0.46 0 0 0 0.10  0 0.26 0 0 0.06  0 0 0.14 0 0.035  0 0 0 .58 0"/>
    </filter>
    <linearGradient id="deep" x1="0" x2="1">
      <stop offset="0" stop-color="#6d442b"/>
      <stop offset=".2" stop-color="#3a2115"/>
      <stop offset=".44" stop-color="#8a5a37"/>
      <stop offset=".67" stop-color="#2a170f"/>
      <stop offset="1" stop-color="#74482d"/>
    </linearGradient>
  </defs>
  <rect width="960" height="320" fill="url(#deep)"/>
  <rect width="960" height="320" filter="url(#noise)" opacity=".9"/>
  <g fill="none" stroke-linecap="round">
    <path d="M-48 38C112 4 177 84 320 42c132-38 210 18 338 32 122 14 212-42 340-62" stroke="#1a0d08" stroke-width="4.8" opacity=".32"/>
    <path d="M-50 96C100 58 205 118 332 90c116-26 180-55 326-22 132 30 218 9 338-20" stroke="#c18a5d" stroke-width="2.4" opacity=".16"/>
    <path d="M-36 158C110 120 210 182 336 150c127-33 204-62 338-25 112 31 196 31 320-2" stroke="#160a06" stroke-width="5.4" opacity=".28"/>
    <path d="M-44 230C88 197 202 260 336 224c122-33 216-62 344-22 104 33 202 24 324-10" stroke="#b97b4f" stroke-width="2.2" opacity=".14"/>
    <path d="M-26 286C110 256 206 302 332 272c116-28 196-56 326-20 120 34 228 22 342-7" stroke="#120805" stroke-width="4.4" opacity=".24"/>
  </g>
  <g opacity=".26">
    <ellipse cx="188" cy="186" rx="92" ry="18" fill="none" stroke="#1a0d08" stroke-width="4"/>
    <ellipse cx="652" cy="118" rx="118" ry="21" fill="none" stroke="#be8358" stroke-width="2.4"/>
    <ellipse cx="780" cy="260" rx="94" ry="19" fill="none" stroke="#120805" stroke-width="3.6"/>
  </g>
</svg>
